<svg height="300" version="1.1" width="300" xmlns="http://www.w3.org/2000/svg"><desc>Created with Snap</desc><defs></defs><circle cx="150" cy="150" r="130.43478260869566" fill="#9cceff"></circle><circle cx="280.4347826086956" cy="150" r="16.304347826086957" fill="#4f81bd"></circle><circle cx="278.8289139906701" cy="170.4044954400301" r="16.304347826086957" fill="#4f81bd"></circle><circle cx="274.05084995154175" cy="190.3065644836888" r="16.304347826086957" fill="#4f81bd"></circle><circle cx="266.21824228543926" cy="209.21615213994087" r="16.304347826086957" fill="#4f81bd"></circle><circle cx="255.52395578803663" cy="226.66764160336606" r="16.304347826086957" fill="#4f81bd"></circle><circle cx="242.23131928520186" cy="242.23131928520183" r="16.304347826086957" fill="#4f81bd"></circle><circle cx="226.66764160336606" cy="255.52395578803663" r="16.304347826086957" fill="#4f81bd"></circle><circle cx="209.2161521399409" cy="266.21824228543926" r="16.304347826086957" fill="#4f81bd"></circle><circle cx="190.30656448368882" cy="274.05084995154175" r="16.304347826086957" fill="#4f81bd"></circle><circle cx="170.40449544003013" cy="278.8289139906701" r="16.304347826086957" fill="#4f81bd"></circle><circle cx="150" cy="280.4347826086956" r="16.304347826086957" fill="#4f81bd"></circle><circle cx="129.5955045599699" cy="278.8289139906701" r="16.304347826086957" fill="#4f81bd"></circle><circle cx="109.69343551631121" cy="274.05084995154175" r="16.304347826086957" fill="#4f81bd"></circle><circle cx="90.78384786005913" cy="266.21824228543926" r="16.304347826086957" fill="#4f81bd"></circle><circle cx="73.33235839663395" cy="255.52395578803663" r="16.304347826086957" fill="#4f81bd"></circle><circle cx="57.76868071479815" cy="242.23131928520186" r="16.304347826086957" fill="#4f81bd"></circle><circle cx="44.47604421196337" cy="226.66764160336606" r="16.304347826086957" fill="#4f81bd"></circle><circle cx="33.781757714560726" cy="209.2161521399409" r="16.304347826086957" fill="#4f81bd"></circle><circle cx="25.949150048458236" cy="190.30656448368882" r="16.304347826086957" fill="#4f81bd"></circle><circle cx="21.171086009329855" cy="170.40449544003013" r="16.304347826086957" fill="#4f81bd"></circle><circle cx="19.565217391304344" cy="150.00000000000003" r="16.304347826086957" fill="#4f81bd"></circle><circle cx="21.171086009329855" cy="129.5955045599699" r="16.304347826086957" fill="#4f81bd"></circle><circle cx="25.949150048458222" cy="109.69343551631123" r="16.304347826086957" fill="#4f81bd"></circle><circle cx="33.78175771456071" cy="90.78384786005913" r="16.304347826086957" fill="#4f81bd"></circle><circle cx="44.47604421196337" cy="73.33235839663395" r="16.304347826086957" fill="#4f81bd"></circle><circle cx="57.76868071479812" cy="57.76868071479815" r="16.304347826086957" fill="#4f81bd"></circle><circle cx="73.33235839663392" cy="44.476044211963384" r="16.304347826086957" fill="#4f81bd"></circle><circle cx="90.7838478600591" cy="33.781757714560726" r="16.304347826086957" fill="#4f81bd"></circle><circle cx="109.69343551631118" cy="25.949150048458236" r="16.304347826086957" fill="#4f81bd"></circle><circle cx="129.59550455996987" cy="21.171086009329855" r="16.304347826086957" fill="#4f81bd"></circle><circle cx="149.99999999999997" cy="19.565217391304344" r="16.304347826086957" fill="#4f81bd"></circle><circle cx="170.40449544003008" cy="21.171086009329855" r="16.304347826086957" fill="#4f81bd"></circle><circle cx="190.30656448368876" cy="25.949150048458222" r="16.304347826086957" fill="#4f81bd"></circle><circle cx="209.21615213994087" cy="33.7817577145607" r="16.304347826086957" fill="#4f81bd"></circle><circle cx="226.66764160336604" cy="44.476044211963355" r="16.304347826086957" fill="#4f81bd"></circle><circle cx="242.23131928520183" cy="57.76868071479812" r="16.304347826086957" fill="#4f81bd"></circle><circle cx="255.5239557880366" cy="73.33235839663391" r="16.304347826086957" fill="#4f81bd"></circle><circle cx="266.21824228543926" cy="90.7838478600591" r="16.304347826086957" fill="#4f81bd"></circle><circle cx="274.05084995154175" cy="109.69343551631118" r="16.304347826086957" fill="#4f81bd"></circle><circle cx="278.8289139906701" cy="129.59550455996987" r="16.304347826086957" fill="#4f81bd"></circle><line x1="182.6086956521739" x2="215.2173913043478" y1="150" y2="150" stroke="#4f81bd" style="stroke-width: 7px; stroke-linecap: round;"></line><line x1="117.3913043478261" x2="84.78260869565217" y1="150" y2="150" stroke="#4f81bd" style="stroke-width: 7px; stroke-linecap: round;"></line><line x1="150" x2="150" y1="182.6086956521739" y2="215.2173913043478" stroke="#4f81bd" style="stroke-width: 7px; stroke-linecap: round;"></line><line x1="150" x2="150" y1="117.3913043478261" y2="84.78260869565217" stroke="#4f81bd" style="stroke-width: 7px; stroke-linecap: round;"></line></svg>