<svg height="300" version="1.1" width="300" xmlns="http://www.w3.org/2000/svg"><desc>Created with Snap</desc><defs></defs><line x1="60" x2="60" y1="0" y2="300" stroke="#000000" style="stroke-width: 10px;"></line><ellipse cx="60" cy="15" rx="25" ry="15" fill="#000000"></ellipse><ellipse cx="60" cy="45" rx="25" ry="15" fill="#000000"></ellipse><ellipse cx="60" cy="75" rx="25" ry="15" fill="#000000"></ellipse><ellipse cx="60" cy="105" rx="25" ry="15" fill="#000000"></ellipse><ellipse cx="60" cy="135" rx="25" ry="15" fill="#000000"></ellipse><line x1="120" x2="120" y1="0" y2="300" stroke="#000000" style="stroke-width: 10px;"></line><ellipse cx="120" cy="15" rx="25" ry="15" fill="#000000"></ellipse><ellipse cx="120" cy="45" rx="25" ry="15" fill="#000000"></ellipse><ellipse cx="120" cy="75" rx="25" ry="15" fill="#000000"></ellipse><ellipse cx="120" cy="105" rx="25" ry="15" fill="#000000"></ellipse><ellipse cx="120" cy="135" rx="25" ry="15" fill="#000000"></ellipse><line x1="180" x2="180" y1="0" y2="300" stroke="#000000" style="stroke-width: 10px;"></line><ellipse cx="180" cy="285" rx="25" ry="15" fill="#000000"></ellipse><ellipse cx="180" cy="255" rx="25" ry="15" fill="#000000"></ellipse><ellipse cx="180" cy="225" rx="25" ry="15" fill="#000000"></ellipse><ellipse cx="180" cy="195" rx="25" ry="15" fill="#000000"></ellipse><ellipse cx="180" cy="165" rx="25" ry="15" fill="#000000"></ellipse><line x1="240" x2="240" y1="0" y2="300" stroke="#000000" style="stroke-width: 10px;"></line><ellipse cx="240" cy="285" rx="25" ry="15" fill="#000000"></ellipse><ellipse cx="240" cy="255" rx="25" ry="15" fill="#000000"></ellipse><ellipse cx="240" cy="225" rx="25" ry="15" fill="#000000"></ellipse><ellipse cx="240" cy="195" rx="25" ry="15" fill="#000000"></ellipse><ellipse cx="240" cy="165" rx="25" ry="15" fill="#000000"></ellipse></svg>